<svg width="94" height="64" viewBox="0 0 94 64" fill="none" xmlns="http://www.w3.org/2000/svg">
<path fill-rule="evenodd" clip-rule="evenodd" d="M47.0769 0.00464365C22.6115 0.364615 14.5283 19.4531 13.5449 28.9524C10.8825 29.7523 4.76612 32.5671 1.60001 37.4267C-2.35763 43.5012 0.808481 51.9006 13.5449 57.4502C26.2813 62.9997 39.3056 64.1996 53.4092 63.9746C64.692 63.7947 76.8672 60.1499 81.5444 58.3501C85.574 56.6252 93.7052 51.5256 93.993 44.9261C94.2808 38.3266 85.622 32.6771 81.2566 30.6772C80.0573 20.3031 71.5424 -0.355328 47.0769 0.00464365ZM49.7943 17.5486C52.6557 17.5486 54.9753 19.9661 54.9753 22.9482V33.1474C54.9753 36.1295 52.6557 38.547 49.7943 38.547C46.933 38.547 44.6134 36.1295 44.6134 33.1474V22.9482C44.6134 19.9661 46.933 17.5486 49.7943 17.5486ZM66.9882 25.4277C66.9882 22.4456 65.2348 20.0138 62.3734 20.0138C59.5121 20.0138 57.7953 22.4456 57.7953 25.4277V30.6772C57.7953 33.6594 59.5121 36.0506 62.3734 36.0506C65.2348 36.0506 66.9882 33.6594 66.9882 30.6772V25.4277Z" fill="#fff"/>
</svg>
