<svg width="275" height="280" viewBox="0 0 275 280" fill="none" xmlns="http://www.w3.org/2000/svg">
<path d="M266.926 159.81L242.24 143.886L243.4 135.08L274.87 157.476L274.129 163.099L266.926 159.81ZM240.317 158.479L267.911 158.616L274.579 159.683L273.881 164.981L239.225 166.774L240.317 158.479ZM252.696 161.954L246.546 160.009L248.772 143.116L254.922 145.061L252.696 161.954Z" fill="#4E44CE"/>
<path d="M235.545 175.869L238.532 168.659L243.939 172.141L241.25 178.511C240.502 180.316 240.334 181.988 240.745 183.528C241.149 185.082 241.932 186.48 243.092 187.722C244.246 188.978 245.569 190.05 247.062 190.939L248.341 191.646C249.24 192.171 250.212 192.641 251.258 193.057C252.318 193.479 253.362 193.734 254.391 193.822C255.42 193.91 256.374 193.73 257.253 193.283C258.126 192.849 258.838 192.028 259.389 190.819L262.398 183.617L267.844 187.065L265.159 193.488C264.243 195.577 263.044 197.246 261.564 198.493C260.098 199.746 258.452 200.595 256.627 201.04C254.817 201.491 252.93 201.555 250.967 201.232C249.003 200.91 247.081 200.223 245.199 199.173L243.897 198.456C241.903 197.309 240.171 195.898 238.699 194.223C237.243 192.555 236.118 190.719 235.324 188.716C234.544 186.718 234.153 184.62 234.151 182.421C234.157 180.241 234.622 178.058 235.545 175.869ZM266.024 191.461L236.765 172.925L239.832 165.519L269.1 184.034L266.024 191.461Z" fill="#4E44CE"/>
<path d="M227.884 207.131L241.729 231.401L236.122 238.709L219.105 204.827L222.743 200.085L227.884 207.131ZM249.704 221.006L226.951 207.154L220.946 202.428L224.427 197.891L255.011 214.089L249.704 221.006Z" fill="#4E44CE"/>
<path d="M215.23 245.072L208.928 216.379L215.956 210.947L222.512 249.011L218.024 252.48L215.23 245.072ZM197.283 225.382L216.77 244.918L220.75 250.373L216.522 253.641L190.663 230.499L197.283 225.382ZM203.62 236.568L200.626 230.855L214.106 220.434L217.101 226.147L203.62 236.568Z" fill="#4E44CE"/>
<path d="M173.665 274.424L166.338 240.571L173.549 237.647L189.179 254.552L184.561 233.183L191.99 230.171L199.338 264.014L192.084 266.956L176.454 250.051L181.093 271.412L173.665 274.424Z" fill="#4E44CE"/>
<path d="M147.723 277.894L149.121 243.29L157.091 242.239L155.67 276.847L147.723 277.894ZM137.847 279.195L138.11 272.754L165.599 269.132L165.313 275.576L137.847 279.195Z" fill="#4E44CE"/>
<path d="M118.917 269.08L134.65 244.272L143.465 245.365L121.312 277.005L115.683 276.308L118.917 269.08ZM120.043 242.462L120.118 270.056L119.102 276.731L113.799 276.074L111.739 241.433L120.043 242.462ZM116.663 254.867L118.561 248.702L135.471 250.798L133.573 256.963L116.663 254.867Z" fill="#4E44CE"/>
<path d="M77.985 247.459L85.3472 235.304C86.7781 234.573 88.354 234.189 90.0749 234.151C91.79 234.128 93.5003 234.322 95.2058 234.734C96.9029 235.126 98.4467 235.623 99.8372 236.227C102.023 237.157 103.718 238.358 104.921 239.83C106.11 241.297 106.866 242.932 107.191 244.737C107.515 246.542 107.463 248.42 107.034 250.372C106.606 252.324 105.86 254.247 104.797 256.142L103.847 257.779C102.731 259.72 101.396 261.452 99.8425 262.977C98.2685 264.51 96.5419 265.736 94.6626 266.655C92.7833 267.573 90.7929 268.083 88.6913 268.184C86.5752 268.279 84.4056 267.846 82.1824 266.884C79.8665 265.902 78.0737 264.652 76.8039 263.135C75.5138 261.627 74.7465 259.894 74.5018 257.937C74.2572 255.979 74.5336 253.821 75.3311 251.463L82.4139 254.391C82.0951 255.375 81.9322 256.287 81.9251 257.129C81.8976 257.979 82.1016 258.738 82.537 259.406C82.9724 260.074 83.709 260.646 84.7466 261.122C85.9952 261.701 87.1892 261.878 88.3285 261.652C89.4619 261.441 90.5307 260.976 91.5349 260.256C92.5247 259.53 93.4241 258.675 94.2333 257.689C95.028 256.698 95.7079 255.719 96.2732 254.751L97.2583 253.027C97.771 252.106 98.2639 251.109 98.7372 250.037C99.1961 248.958 99.4909 247.889 99.6217 246.828C99.7525 245.767 99.6026 244.793 99.1719 243.908C98.7267 243.016 97.8667 242.292 96.5918 241.736C96.0339 241.49 95.4769 241.304 94.9208 241.178C94.3503 241.045 93.7808 240.972 93.2122 240.959C92.6232 240.954 92.0352 241.008 91.4481 241.122L88.4547 245.645L93.5945 247.752L90.5418 252.605L77.985 247.459Z" fill="#4E44CE"/>
<path d="M63.8106 222.338L68.4564 217.903L82.6898 228.416L78.044 232.852L63.8106 222.338ZM55.3264 250.629L80.371 226.703L86.8185 231.466L61.7927 255.406L55.3264 250.629ZM55.1933 233.689L59.6761 229.395L72.0808 238.558L67.5792 242.838L55.1933 233.689ZM43.3741 241.801L48.0338 237.346L62.3238 247.902L57.6452 252.342L43.3741 241.801Z" fill="#4E44CE"/>
<path d="M48.6141 209.67C47.9611 210.035 47.5175 210.478 47.2832 211.001C47.0389 211.512 46.9348 212.069 46.9708 212.671C46.9968 213.261 47.11 213.87 47.3102 214.497C47.4883 215.123 47.6744 215.721 47.8684 216.293C48.2808 217.538 48.6353 218.811 48.9318 220.112C49.2164 221.424 49.3468 222.722 49.3232 224.006C49.2996 225.29 49.0326 226.504 48.5224 227.646C48.0021 228.776 47.1363 229.798 45.9251 230.713C44.5262 231.744 43.0668 232.326 41.5468 232.459C40.0268 232.592 38.5306 232.389 37.0584 231.85C35.5641 231.309 34.1721 230.55 32.8824 229.572C31.5706 228.592 30.4396 227.512 29.4893 226.33C28.1272 224.659 27.2269 222.905 26.7886 221.07C26.3401 219.223 26.409 217.421 26.9952 215.665C27.5694 213.918 28.7163 212.344 30.4361 210.942L35.5433 217.028C34.853 217.567 34.3478 218.143 34.0278 218.759C33.6858 219.372 33.563 220.016 33.6593 220.69C33.7436 221.373 34.0761 222.073 34.6567 222.79C35.1369 223.386 35.7248 223.892 36.4204 224.308C37.1041 224.734 37.8302 224.992 38.5987 225.081C39.3672 225.17 40.1249 225.004 40.8717 224.581C41.4327 224.253 41.7983 223.814 41.9685 223.263C42.1267 222.722 42.1617 222.132 42.0735 221.492C41.9733 220.862 41.8222 220.245 41.62 219.639C41.4079 219.022 41.222 218.484 41.0624 218.026C40.6098 216.734 40.2583 215.427 40.0077 214.108C39.7351 212.786 39.6427 211.497 39.7304 210.241C39.8081 208.972 40.1401 207.776 40.7264 206.651C41.2908 205.525 42.1895 204.506 43.4228 203.593C44.8557 202.554 46.312 201.944 47.7918 201.763C49.2716 201.582 50.7226 201.731 52.1446 202.21C53.5667 202.689 54.9075 203.4 56.1671 204.342C57.4267 205.284 58.5577 206.364 59.5602 207.583C60.6712 208.956 61.5273 210.389 62.1286 211.884C62.7179 213.388 63.0081 214.889 62.9992 216.385C62.9783 217.892 62.6242 219.341 61.9367 220.734C61.2373 222.137 60.1654 223.424 58.721 224.595L53.5714 218.422C54.2718 217.895 54.8291 217.356 55.2434 216.805C55.6356 216.251 55.8797 215.679 55.9757 215.089C56.0497 214.496 55.9706 213.879 55.7383 213.238C55.4941 212.607 55.0807 211.944 54.4982 211.25C54.006 210.663 53.4442 210.176 52.8127 209.788C52.1592 209.398 51.4742 209.177 50.7578 209.126C50.0415 209.074 49.3269 209.256 48.6141 209.67Z" fill="#4E44CE"/>
<path d="M8.29897 123.442L33.4046 138.696L32.4816 147.531L0.421387 125.989L1.01073 120.348L8.29897 123.442ZM34.934 124.057L7.34672 124.662L0.65274 123.774L1.20799 118.46L35.8034 115.735L34.934 124.057ZM22.4662 120.916L28.6665 122.695L26.8961 139.642L20.6958 137.863L22.4662 120.916Z" fill="#4E44CE"/>
<path d="M39.1529 106.702L36.3563 113.989L30.8598 110.649L33.3811 104.211C34.0809 102.388 34.2054 100.712 33.7544 99.1829C33.3091 97.6396 32.4903 96.2626 31.2981 95.0519C30.1115 93.8266 28.7607 92.7893 27.2456 91.94L25.9478 91.2662C25.0354 90.7654 24.0513 90.3207 22.9954 89.9322C21.9249 89.538 20.8741 89.3105 19.8432 89.2495C18.8122 89.1885 17.8633 89.3934 16.9964 89.864C16.1352 90.3201 15.4448 91.1597 14.9251 92.3828L12.1067 99.6609L6.57156 96.3566L9.08768 89.8663C9.94887 87.7533 11.1031 86.054 12.5505 84.7685C13.9832 83.4775 15.6059 82.5856 17.4184 82.093C19.2163 81.5947 21.1008 81.4812 23.0721 81.7524C25.0433 82.0236 26.9833 82.6595 28.8922 83.6599L30.212 84.3421C32.2354 85.4367 34.0043 86.8018 35.5188 88.4375C37.0187 90.0675 38.1917 91.8734 39.0378 93.855C39.8693 95.8311 40.315 97.9184 40.3749 100.117C40.4258 102.296 40.0185 104.491 39.1529 106.702ZM8.27638 91.9147L38.0107 109.678L35.1385 117.162L5.39582 99.4199L8.27638 91.9147Z" fill="#4E44CE"/>
<path d="M46.1134 74.9518L31.6532 51.0433L37.0715 43.5946L54.9478 77.0308L51.4321 81.8639L46.1134 74.9518ZM23.9462 61.6383L47.0456 74.9054L53.1693 79.4758L49.8052 84.1004L18.8174 68.6889L23.9462 61.6383Z" fill="#4E44CE"/>
<path d="M57.3744 37.0291L64.406 65.5515L57.5191 71.1617L49.9946 33.2766L54.3921 29.6943L57.3744 37.0291ZM75.8176 56.2554L55.8387 37.2221L51.7209 31.8703L55.8639 28.4953L82.3047 50.9708L75.8176 56.2554ZM69.1971 45.2338L72.3364 50.8687L59.1258 61.6303L55.9865 55.9953L69.1971 45.2338Z" fill="#4E44CE"/>
<path d="M98.2629 6.4054L106.472 40.0548L99.3402 43.166L83.2736 26.6755L88.4486 47.9173L81.1016 51.1222L72.8706 17.4822L80.0458 14.3522L96.1123 30.8428L90.9159 9.61036L98.2629 6.4054Z" fill="#4E44CE"/>
<path d="M124.467 2.14361L123.865 36.7707L115.922 38.004L116.546 3.3733L124.467 2.14361ZM134.31 0.615479L134.196 7.06085L106.797 11.3144L106.934 4.86547L134.31 0.615479Z" fill="#4E44CE"/>
<path d="M153.162 10.169L138.102 35.3912L129.261 34.5363L150.555 2.31121L156.201 2.85713L153.162 10.169ZM152.753 36.8079L151.935 9.22613L152.771 2.52552L158.09 3.03985L161.081 37.6132L152.753 36.8079ZM155.797 24.3164L154.066 30.5302L137.106 28.8902L138.837 22.6764L155.797 24.3164Z" fill="#4E44CE"/>
<path d="M194.339 30.5202L187.298 42.8641C185.887 43.6321 184.321 44.0575 182.602 44.1403C180.888 44.2085 179.173 44.0591 177.458 43.6921C175.751 43.3452 174.195 42.8882 172.789 42.3213C170.579 41.4494 168.854 40.2932 167.612 38.8527C166.385 37.4177 165.586 35.8025 165.215 34.007C164.843 32.2115 164.846 30.3324 165.223 28.3698C165.6 26.4072 166.296 24.465 167.309 22.5433L168.215 20.8818C169.28 18.9127 170.569 17.1457 172.082 15.5808C173.616 14.0068 175.309 12.736 177.164 11.7686C179.019 10.8012 180.995 10.2393 183.093 10.083C185.206 9.93226 187.386 10.3084 189.634 11.2116C191.975 12.1334 193.8 13.3357 195.109 14.8185C196.438 16.2923 197.25 18.0045 197.546 19.9552C197.842 21.9058 197.622 24.0702 196.887 26.4484L189.73 23.7071C190.023 22.7153 190.162 21.7987 190.147 20.9574C190.152 20.107 189.928 19.3536 189.475 18.6971C189.023 18.0406 188.271 17.4881 187.222 17.0395C185.958 16.4932 184.76 16.3477 183.627 16.6029C182.5 16.8435 181.443 17.3368 180.458 18.0827C179.488 18.8341 178.611 19.7131 177.828 20.7195C177.06 21.7314 176.406 22.7283 175.866 23.71L174.926 25.4592C174.438 26.3936 173.971 27.4031 173.526 28.4876C173.096 29.5777 172.829 30.6547 172.726 31.7187C172.623 32.7826 172.799 33.7516 173.253 34.6258C173.721 35.5054 174.6 36.2066 175.889 36.7292C176.453 36.96 177.014 37.1314 177.574 37.2433C178.147 37.3608 178.719 37.4188 179.287 37.4174C179.876 37.407 180.463 37.337 181.047 37.2077L183.92 32.6077L178.727 30.6368L181.652 25.7052L194.339 30.5202Z" fill="#4E44CE"/>
<path d="M209.525 55.3415L204.994 59.8944L190.496 49.7484L195.027 45.1954L209.525 55.3415ZM217.283 26.8429L192.858 51.4013L186.291 46.8054L210.696 22.2335L217.283 26.8429ZM217.849 43.774L213.477 48.1811L200.842 39.3386L205.233 34.945L217.849 43.774ZM229.457 35.3629L224.912 39.9351L210.357 29.7487L214.921 25.19L229.457 35.3629Z" fill="#4E44CE"/>
<path d="M225.158 67.6484C225.802 67.2676 226.234 66.8128 226.455 66.284C226.686 65.767 226.776 65.208 226.725 64.6071C226.684 64.0179 226.555 63.4121 226.339 62.7899C226.145 62.1691 225.943 61.5755 225.735 61.0091C225.291 59.7751 224.904 58.5113 224.575 57.2179C224.257 55.9142 224.093 54.62 224.084 53.3354C224.075 52.0507 224.311 50.831 224.792 49.6763C225.284 48.5333 226.123 47.4894 227.311 46.5444C228.683 45.4781 230.127 44.859 231.643 44.6871C233.159 44.5152 234.66 44.68 236.145 45.1814C237.653 45.6843 239.064 46.4081 240.378 47.3528C241.714 48.2989 242.873 49.3502 243.853 50.5067C245.257 52.1434 246.201 53.8733 246.686 55.6966C247.182 57.5316 247.159 59.3345 246.617 61.1054C246.088 62.8659 244.981 64.469 243.298 65.9146L238.037 59.9603C238.714 59.4043 239.204 58.8148 239.508 58.1915C239.835 57.5697 239.941 56.9232 239.828 56.252C239.726 55.5704 239.376 54.879 238.777 54.1778C238.282 53.5937 237.681 53.1027 236.975 52.7048C236.281 52.2966 235.549 52.0575 234.778 51.9877C234.007 51.9179 233.254 52.1038 232.518 52.5453C231.966 52.8875 231.612 53.3361 231.456 53.891C231.311 54.4355 231.291 55.0265 231.396 55.6639C231.512 56.291 231.679 56.9046 231.896 57.5048C232.124 58.1166 232.324 58.6493 232.495 59.1026C232.98 60.3835 233.365 61.6803 233.649 62.9931C233.955 64.3072 234.08 65.5935 234.024 66.852C233.979 68.1222 233.678 69.3267 233.12 70.4656C232.585 71.6059 231.712 72.6478 230.503 73.5914C229.097 74.6667 227.656 75.3137 226.182 75.5325C224.707 75.7512 223.253 75.6391 221.819 75.1962C220.385 74.7532 219.026 74.077 217.743 73.1674C216.46 72.2578 215.302 71.2065 214.269 70.0134C213.123 68.6696 212.231 67.2583 211.592 65.7797C210.964 64.2908 210.636 62.7982 210.607 61.302C210.589 59.7954 210.906 58.3373 211.558 56.9275C212.222 55.5073 213.26 54.1934 214.675 52.9857L219.98 59.0258C219.293 59.5701 218.749 60.1231 218.349 60.6851C217.971 61.2484 217.742 61.8264 217.661 62.4192C217.602 63.0133 217.697 63.628 217.945 64.2633C218.206 64.8882 218.636 65.5402 219.236 66.2194C219.743 66.7932 220.317 67.2659 220.958 67.6377C221.621 68.0108 222.312 68.214 223.029 68.2473C223.746 68.2806 224.456 68.081 225.158 67.6484Z" fill="#4E44CE"/>
</svg>
